<svg width="245" height="271" viewBox="0 0 245 271" fill="none" xmlns="http://www.w3.org/2000/svg">
<g filter="url(#filter0_d_1_7030)">
<rect x="46" y="14.3604" width="153" height="213.977" rx="32" fill="url(#paint0_linear_1_7030)"/>
</g>
<rect y="14.3604" width="245" height="213.977" rx="32" fill="url(#paint1_linear_1_7030)"/>
<mask id="mask0_1_7030" style="mask-type:alpha" maskUnits="userSpaceOnUse" x="0" y="14" width="245" height="215">
<rect y="14.36" width="245" height="213.977" rx="32" fill="url(#paint2_linear_1_7030)"/>
</mask>
<g mask="url(#mask0_1_7030)">
<ellipse cx="192" cy="186.174" rx="85" ry="89.5961" fill="url(#paint3_linear_1_7030)" fill-opacity="0.6"/>
</g>
<path d="M26.75 50.6233C26.75 51.4402 26.1344 52.1024 25.375 52.1024C24.6156 52.1024 24 51.4402 24 50.6233C24 49.8064 24.6156 49.1442 25.375 49.1442C26.1344 49.1442 26.75 49.8064 26.75 50.6233Z" fill="black"/>
<path d="M33.1667 50.6233C33.1667 51.4402 32.5511 52.1024 31.7917 52.1024C31.0323 52.1024 30.4167 51.4402 30.4167 50.6233C30.4167 49.8064 31.0323 49.1442 31.7917 49.1442C32.5511 49.1442 33.1667 49.8064 33.1667 50.6233Z" fill="black"/>
<path d="M39.5833 50.6233C39.5833 51.4402 38.9677 52.1024 38.2083 52.1024C37.4489 52.1024 36.8333 51.4402 36.8333 50.6233C36.8333 49.8064 37.4489 49.1442 38.2083 49.1442C38.9677 49.1442 39.5833 49.8064 39.5833 50.6233Z" fill="black"/>
<path d="M46 50.6233C46 51.4402 45.3844 52.1024 44.625 52.1024C43.8656 52.1024 43.25 51.4402 43.25 50.6233C43.25 49.8064 43.8656 49.1442 44.625 49.1442C45.3844 49.1442 46 49.8064 46 50.6233Z" fill="black"/>
<path d="M26.75 57.5257C26.75 58.3426 26.1344 59.0048 25.375 59.0048C24.6156 59.0048 24 58.3426 24 57.5257C24 56.7088 24.6156 56.0466 25.375 56.0466C26.1344 56.0466 26.75 56.7088 26.75 57.5257Z" fill="black"/>
<path d="M33.1667 57.5257C33.1667 58.3426 32.5511 59.0048 31.7917 59.0048C31.0323 59.0048 30.4167 58.3426 30.4167 57.5257C30.4167 56.7088 31.0323 56.0466 31.7917 56.0466C32.5511 56.0466 33.1667 56.7088 33.1667 57.5257Z" fill="black"/>
<path d="M39.5833 57.5257C39.5833 58.3426 38.9677 59.0048 38.2083 59.0048C37.4489 59.0048 36.8333 58.3426 36.8333 57.5257C36.8333 56.7088 37.4489 56.0466 38.2083 56.0466C38.9677 56.0466 39.5833 56.7088 39.5833 57.5257Z" fill="black"/>
<path d="M46 57.5257C46 58.3426 45.3844 59.0048 44.625 59.0048C43.8656 59.0048 43.25 58.3426 43.25 57.5257C43.25 56.7088 43.8656 56.0466 44.625 56.0466C45.3844 56.0466 46 56.7088 46 57.5257Z" fill="black"/>
<path d="M26.75 64.4282C26.75 65.2451 26.1344 65.9073 25.375 65.9073C24.6156 65.9073 24 65.2451 24 64.4282C24 63.6113 24.6156 62.9491 25.375 62.9491C26.1344 62.9491 26.75 63.6113 26.75 64.4282Z" fill="black"/>
<path d="M33.1667 64.4282C33.1667 65.2451 32.5511 65.9073 31.7917 65.9073C31.0323 65.9073 30.4167 65.2451 30.4167 64.4282C30.4167 63.6113 31.0323 62.9491 31.7917 62.9491C32.5511 62.9491 33.1667 63.6113 33.1667 64.4282Z" fill="black"/>
<path d="M39.5833 64.4282C39.5833 65.2451 38.9677 65.9073 38.2083 65.9073C37.4489 65.9073 36.8333 65.2451 36.8333 64.4282C36.8333 63.6113 37.4489 62.9491 38.2083 62.9491C38.9677 62.9491 39.5833 63.6113 39.5833 64.4282Z" fill="black"/>
<path d="M46 64.4282C46 65.2451 45.3844 65.9073 44.625 65.9073C43.8656 65.9073 43.25 65.2451 43.25 64.4282C43.25 63.6113 43.8656 62.9491 44.625 62.9491C45.3844 62.9491 46 63.6113 46 64.4282Z" fill="black"/>
<path d="M26.75 71.3307C26.75 72.1476 26.1344 72.8098 25.375 72.8098C24.6156 72.8098 24 72.1476 24 71.3307C24 70.5138 24.6156 69.8516 25.375 69.8516C26.1344 69.8516 26.75 70.5138 26.75 71.3307Z" fill="black"/>
<path d="M33.1667 71.3307C33.1667 72.1476 32.5511 72.8098 31.7917 72.8098C31.0323 72.8098 30.4167 72.1476 30.4167 71.3307C30.4167 70.5138 31.0323 69.8516 31.7917 69.8516C32.5511 69.8516 33.1667 70.5138 33.1667 71.3307Z" fill="black"/>
<path d="M39.5833 71.3307C39.5833 72.1476 38.9677 72.8098 38.2083 72.8098C37.4489 72.8098 36.8333 72.1476 36.8333 71.3307C36.8333 70.5138 37.4489 69.8516 38.2083 69.8516C38.9677 69.8516 39.5833 70.5138 39.5833 71.3307Z" fill="black"/>
<path d="M46 71.3307C46 72.1476 45.3844 72.8098 44.625 72.8098C43.8656 72.8098 43.25 72.1476 43.25 71.3307C43.25 70.5138 43.8656 69.8516 44.625 69.8516C45.3844 69.8516 46 70.5138 46 71.3307Z" fill="black"/>
<path d="M26.75 78.2331C26.75 79.05 26.1344 79.7122 25.375 79.7122C24.6156 79.7122 24 79.05 24 78.2331C24 77.4163 24.6156 76.754 25.375 76.754C26.1344 76.754 26.75 77.4163 26.75 78.2331Z" fill="black"/>
<path d="M33.1667 78.2331C33.1667 79.05 32.5511 79.7122 31.7917 79.7122C31.0323 79.7122 30.4167 79.05 30.4167 78.2331C30.4167 77.4163 31.0323 76.754 31.7917 76.754C32.5511 76.754 33.1667 77.4163 33.1667 78.2331Z" fill="black"/>
<path d="M39.5833 78.2331C39.5833 79.05 38.9677 79.7122 38.2083 79.7122C37.4489 79.7122 36.8333 79.05 36.8333 78.2331C36.8333 77.4163 37.4489 76.754 38.2083 76.754C38.9677 76.754 39.5833 77.4163 39.5833 78.2331Z" fill="black"/>
<path d="M46 78.2331C46 79.05 45.3844 79.7122 44.625 79.7122C43.8656 79.7122 43.25 79.05 43.25 78.2331C43.25 77.4163 43.8656 76.754 44.625 76.754C45.3844 76.754 46 77.4163 46 78.2331Z" fill="black"/>
<path d="M50.725 178.954C50.7248 178.953 50.7245 178.953 50.7242 178.953L45.8256 173.814C45.4586 173.429 44.865 173.431 44.4997 173.818C44.1345 174.204 44.1359 174.83 44.5028 175.215L47.7918 178.665H27.9375C27.4197 178.665 27 179.107 27 179.653C27 180.199 27.4197 180.641 27.9375 180.641H47.7917L44.5029 184.091C44.1359 184.476 44.1345 185.102 44.4998 185.489C44.865 185.876 45.4587 185.877 45.8256 185.492L50.7242 180.354C50.7245 180.353 50.7248 180.353 50.7251 180.353C51.0923 179.966 51.0911 179.339 50.725 178.954Z" fill="black"/>
<path d="M28.68 111.248C27.336 111.248 26.192 111.072 25.248 110.72C24.32 110.368 23.616 109.784 23.136 108.968C22.656 108.136 22.416 107.032 22.416 105.656V94.592H25.728V105.776C25.728 106.72 25.976 107.4 26.472 107.816C26.984 108.232 27.72 108.44 28.68 108.44C29.688 108.44 30.448 108.232 30.96 107.816C31.472 107.4 31.728 106.72 31.728 105.776V94.592H35.04V105.608C35.04 106.984 34.792 108.088 34.296 108.92C33.816 109.752 33.104 110.352 32.16 110.72C31.232 111.072 30.072 111.248 28.68 111.248ZM37.7419 116.048V98.936H40.9099L40.9339 99.704C41.1579 99.56 41.4379 99.408 41.7739 99.248C42.1259 99.088 42.5019 98.952 42.9019 98.84C43.3019 98.728 43.6939 98.672 44.0779 98.672C45.1499 98.672 46.0139 98.904 46.6699 99.368C47.3419 99.816 47.8299 100.504 48.1339 101.432C48.4539 102.344 48.6139 103.504 48.6139 104.912C48.6139 106.416 48.4379 107.632 48.0859 108.56C47.7339 109.488 47.1659 110.168 46.3819 110.6C45.6139 111.032 44.5979 111.248 43.3339 111.248C42.9339 111.248 42.5019 111.216 42.0379 111.152C41.5739 111.088 41.2059 111.024 40.9339 110.96V116.048H37.7419ZM42.8299 108.584C43.4699 108.584 43.9739 108.448 44.3419 108.176C44.7099 107.904 44.9659 107.496 45.1099 106.952C45.2699 106.392 45.3499 105.688 45.3499 104.84C45.3499 103.528 45.1659 102.624 44.7979 102.128C44.4459 101.616 43.9339 101.36 43.2619 101.36C43.0059 101.36 42.7339 101.392 42.4459 101.456C42.1579 101.52 41.8779 101.6 41.6059 101.696C41.3339 101.792 41.1099 101.888 40.9339 101.984V108.416C41.1259 108.432 41.3979 108.464 41.7499 108.512C42.1179 108.56 42.4779 108.584 42.8299 108.584ZM56.1006 116.48C54.8206 116.48 53.7486 116.384 52.8846 116.192C52.0366 116 51.3966 115.648 50.9646 115.136C50.5326 114.64 50.3166 113.92 50.3166 112.976C50.3166 112.56 50.3726 112.184 50.4846 111.848C50.6126 111.528 50.8046 111.224 51.0606 110.936C51.3326 110.648 51.6686 110.352 52.0686 110.048C51.8446 109.888 51.6606 109.656 51.5166 109.352C51.3886 109.032 51.3246 108.688 51.3246 108.32C51.3246 108.192 51.3806 108.024 51.4926 107.816C51.6046 107.592 51.7406 107.36 51.9006 107.12C52.0606 106.88 52.2126 106.664 52.3566 106.472C52.0366 106.328 51.7326 106.12 51.4446 105.848C51.1566 105.56 50.9166 105.176 50.7246 104.696C50.5486 104.216 50.4606 103.6 50.4606 102.848C50.4606 101.824 50.6526 101.008 51.0366 100.4C51.4366 99.792 52.0126 99.352 52.7646 99.08C53.5166 98.808 54.4286 98.672 55.5006 98.672C55.9166 98.672 56.3646 98.704 56.8446 98.768C57.3246 98.832 57.7086 98.896 57.9966 98.96L61.9086 98.888V101.048L60.0846 101.024C60.2286 101.216 60.3566 101.464 60.4686 101.768C60.5966 102.056 60.6606 102.416 60.6606 102.848C60.6606 103.952 60.4686 104.808 60.0846 105.416C59.7166 106.024 59.1566 106.448 58.4046 106.688C57.6526 106.912 56.7006 107.024 55.5486 107.024C55.4206 107.024 55.2446 107.016 55.0206 107C54.7966 106.968 54.6126 106.944 54.4686 106.928C54.4046 107.088 54.3406 107.272 54.2766 107.48C54.2126 107.672 54.1806 107.808 54.1806 107.888C54.1806 108.064 54.2126 108.2 54.2766 108.296C54.3566 108.392 54.4926 108.472 54.6846 108.536C54.8926 108.584 55.1886 108.616 55.5726 108.632C55.9726 108.648 56.5006 108.656 57.1566 108.656C58.2926 108.656 59.1966 108.76 59.8686 108.968C60.5566 109.176 61.0446 109.544 61.3326 110.072C61.6206 110.6 61.7646 111.344 61.7646 112.304C61.7646 113.728 61.2606 114.776 60.2526 115.448C59.2606 116.136 57.8766 116.48 56.1006 116.48ZM55.9326 114.104C56.9246 114.104 57.6366 113.984 58.0686 113.744C58.5166 113.52 58.7406 113.144 58.7406 112.616C58.7406 112.2 58.6606 111.896 58.5006 111.704C58.3566 111.512 58.1086 111.384 57.7566 111.32C57.4046 111.272 56.9246 111.248 56.3166 111.248C56.1566 111.248 55.9646 111.24 55.7406 111.224C55.5166 111.224 55.2846 111.216 55.0446 111.2C54.8206 111.2 54.6126 111.192 54.4206 111.176C54.2446 111.16 54.1166 111.152 54.0366 111.152C53.8126 111.312 53.6286 111.464 53.4846 111.608C53.3566 111.752 53.2606 111.896 53.1966 112.04C53.1486 112.2 53.1246 112.392 53.1246 112.616C53.1246 112.984 53.2126 113.272 53.3886 113.48C53.5646 113.704 53.8526 113.864 54.2526 113.96C54.6686 114.056 55.2286 114.104 55.9326 114.104ZM55.5246 104.768C56.2606 104.768 56.7806 104.624 57.0846 104.336C57.4046 104.032 57.5646 103.536 57.5646 102.848C57.5646 102.16 57.4046 101.664 57.0846 101.36C56.7806 101.056 56.2606 100.904 55.5246 100.904C54.8206 100.904 54.3086 101.056 53.9886 101.36C53.6846 101.664 53.5326 102.16 53.5326 102.848C53.5326 103.536 53.6846 104.032 53.9886 104.336C54.3086 104.624 54.8206 104.768 55.5246 104.768ZM63.5934 110.984V98.936H66.7854V100.352C67.0574 100.144 67.3934 99.928 67.7934 99.704C68.1934 99.464 68.6254 99.248 69.0894 99.056C69.5694 98.848 70.0254 98.712 70.4574 98.648V101.744C70.0414 101.808 69.6014 101.92 69.1374 102.08C68.6734 102.224 68.2334 102.384 67.8174 102.56C67.4174 102.736 67.0734 102.896 66.7854 103.04V110.984H63.5934ZM75.2687 111.248C74.0207 111.248 73.0767 110.936 72.4367 110.312C71.8127 109.672 71.5007 108.712 71.5007 107.432C71.5007 106.536 71.6607 105.84 71.9807 105.344C72.3007 104.832 72.7727 104.464 73.3967 104.24C74.0367 104 74.8127 103.856 75.7247 103.808L78.6527 103.544V102.824C78.6527 102.248 78.5087 101.848 78.2207 101.624C77.9327 101.384 77.5087 101.264 76.9487 101.264C76.5007 101.264 75.9807 101.28 75.3887 101.312C74.8127 101.344 74.2367 101.384 73.6607 101.432C73.1007 101.48 72.6127 101.528 72.1967 101.576L72.1007 99.32C72.5167 99.224 73.0127 99.128 73.5887 99.032C74.1807 98.92 74.7967 98.832 75.4367 98.768C76.0767 98.704 76.6687 98.672 77.2127 98.672C78.2367 98.672 79.0927 98.8 79.7807 99.056C80.4687 99.312 80.9887 99.736 81.3407 100.328C81.6927 100.904 81.8687 101.688 81.8687 102.68V108.176C81.9007 108.4 82.0207 108.576 82.2287 108.704C82.4367 108.816 82.6767 108.896 82.9487 108.944L82.8767 111.152C82.6207 111.152 82.3647 111.152 82.1087 111.152C81.8687 111.168 81.6367 111.168 81.4127 111.152C81.1887 111.152 80.9887 111.136 80.8127 111.104C80.4447 111.056 80.1247 110.96 79.8527 110.816C79.5967 110.672 79.3887 110.52 79.2287 110.36C78.9727 110.472 78.6287 110.6 78.1967 110.744C77.7647 110.888 77.2927 111.008 76.7807 111.104C76.2847 111.2 75.7807 111.248 75.2687 111.248ZM76.0367 108.872C76.3407 108.872 76.6607 108.84 76.9967 108.776C77.3327 108.712 77.6447 108.64 77.9327 108.56C78.2367 108.464 78.4767 108.376 78.6527 108.296V105.536L76.2047 105.752C75.6767 105.8 75.2927 105.96 75.0527 106.232C74.8287 106.488 74.7167 106.856 74.7167 107.336C74.7167 107.816 74.8207 108.192 75.0287 108.464C75.2527 108.736 75.5887 108.872 76.0367 108.872ZM88.7432 111.248C88.1672 111.248 87.6392 111.176 87.1592 111.032C86.6792 110.904 86.2552 110.696 85.8872 110.408C85.5352 110.104 85.2312 109.712 84.9752 109.232C84.7352 108.752 84.5512 108.168 84.4232 107.48C84.2952 106.776 84.2312 105.96 84.2312 105.032C84.2312 103.656 84.3992 102.496 84.7352 101.552C85.0872 100.608 85.6392 99.896 86.3912 99.416C87.1432 98.92 88.1432 98.672 89.3912 98.672C89.6312 98.672 89.9112 98.688 90.2312 98.72C90.5512 98.736 90.8632 98.768 91.1672 98.816C91.4712 98.848 91.7192 98.88 91.9112 98.912V94.016H95.1272V110.984H91.9592L91.9352 110.288C91.7112 110.416 91.4152 110.56 91.0472 110.72C90.6952 110.864 90.3192 110.984 89.9192 111.08C89.5192 111.192 89.1272 111.248 88.7432 111.248ZM89.5592 108.56C89.8472 108.56 90.1352 108.528 90.4232 108.464C90.7272 108.4 91.0072 108.328 91.2632 108.248C91.5352 108.152 91.7512 108.064 91.9112 107.984V101.528C91.7672 101.496 91.5752 101.472 91.3352 101.456C91.0952 101.424 90.8472 101.4 90.5912 101.384C90.3352 101.352 90.1032 101.336 89.8952 101.336C89.2712 101.336 88.7832 101.48 88.4312 101.768C88.0952 102.056 87.8552 102.48 87.7112 103.04C87.5672 103.584 87.4952 104.248 87.4952 105.032C87.4952 105.72 87.5432 106.296 87.6392 106.76C87.7352 107.208 87.8712 107.568 88.0472 107.84C88.2392 108.096 88.4632 108.28 88.7192 108.392C88.9752 108.504 89.2552 108.56 89.5592 108.56ZM102.637 111.248C101.309 111.248 100.253 111.024 99.4693 110.576C98.7013 110.128 98.1493 109.448 97.8133 108.536C97.4773 107.624 97.3093 106.48 97.3093 105.104C97.3093 103.616 97.5173 102.4 97.9333 101.456C98.3653 100.512 98.9893 99.816 99.8053 99.368C100.621 98.904 101.629 98.672 102.829 98.672C104.605 98.672 105.941 99.12 106.837 100.016C107.749 100.912 108.205 102.328 108.205 104.264L108.061 106.04H100.525C100.541 106.936 100.725 107.608 101.077 108.056C101.429 108.504 102.037 108.728 102.901 108.728C103.397 108.728 103.941 108.72 104.533 108.704C105.125 108.672 105.709 108.64 106.285 108.608C106.877 108.576 107.381 108.544 107.797 108.512L107.869 110.744C107.469 110.808 106.965 110.88 106.357 110.96C105.749 111.04 105.117 111.104 104.461 111.152C103.821 111.216 103.213 111.248 102.637 111.248ZM100.525 104H105.013C105.013 102.912 104.837 102.152 104.485 101.72C104.149 101.288 103.597 101.072 102.829 101.072C102.317 101.072 101.893 101.168 101.557 101.36C101.221 101.552 100.965 101.864 100.789 102.296C100.613 102.728 100.525 103.296 100.525 104ZM114.522 110.984L118.698 94.592H124.482L128.634 110.984H125.322L124.41 107.672H118.674L117.81 110.984H114.522ZM119.202 105.008H123.93L122.082 97.28H121.074L119.202 105.008ZM135.006 111.248C133.63 111.248 132.55 111.04 131.766 110.624C130.998 110.192 130.454 109.504 130.134 108.56C129.83 107.616 129.678 106.376 129.678 104.84C129.678 103.32 129.854 102.112 130.206 101.216C130.558 100.304 131.126 99.656 131.91 99.272C132.71 98.872 133.75 98.672 135.03 98.672C135.366 98.672 135.758 98.696 136.206 98.744C136.654 98.792 137.102 98.856 137.55 98.936C138.014 99 138.406 99.064 138.726 99.128L138.606 101.696C138.302 101.664 137.958 101.64 137.574 101.624C137.19 101.592 136.814 101.568 136.446 101.552C136.094 101.52 135.806 101.504 135.582 101.504C134.894 101.504 134.35 101.616 133.95 101.84C133.566 102.048 133.294 102.4 133.134 102.896C132.99 103.376 132.918 104.024 132.918 104.84C132.918 105.72 132.99 106.424 133.134 106.952C133.278 107.48 133.534 107.856 133.902 108.08C134.286 108.304 134.846 108.416 135.582 108.416C135.806 108.416 136.102 108.408 136.47 108.392C136.838 108.36 137.214 108.328 137.598 108.296C137.998 108.264 138.35 108.24 138.654 108.224L138.75 110.792C138.43 110.856 138.046 110.92 137.598 110.984C137.15 111.064 136.694 111.128 136.23 111.176C135.782 111.224 135.374 111.248 135.006 111.248ZM145.623 111.248C144.247 111.248 143.167 111.04 142.383 110.624C141.615 110.192 141.071 109.504 140.751 108.56C140.447 107.616 140.295 106.376 140.295 104.84C140.295 103.32 140.471 102.112 140.823 101.216C141.175 100.304 141.743 99.656 142.527 99.272C143.327 98.872 144.367 98.672 145.647 98.672C145.983 98.672 146.375 98.696 146.823 98.744C147.271 98.792 147.719 98.856 148.167 98.936C148.631 99 149.023 99.064 149.343 99.128L149.223 101.696C148.919 101.664 148.575 101.64 148.191 101.624C147.807 101.592 147.431 101.568 147.063 101.552C146.711 101.52 146.423 101.504 146.199 101.504C145.511 101.504 144.967 101.616 144.567 101.84C144.183 102.048 143.911 102.4 143.751 102.896C143.607 103.376 143.535 104.024 143.535 104.84C143.535 105.72 143.607 106.424 143.751 106.952C143.895 107.48 144.151 107.856 144.519 108.08C144.903 108.304 145.463 108.416 146.199 108.416C146.423 108.416 146.719 108.408 147.087 108.392C147.455 108.36 147.831 108.328 148.215 108.296C148.615 108.264 148.967 108.24 149.271 108.224L149.367 110.792C149.047 110.856 148.663 110.92 148.215 110.984C147.767 111.064 147.311 111.128 146.847 111.176C146.399 111.224 145.991 111.248 145.623 111.248ZM156.527 111.248C155.167 111.248 154.071 111.024 153.239 110.576C152.423 110.128 151.831 109.44 151.463 108.512C151.095 107.568 150.911 106.352 150.911 104.864C150.911 103.424 151.103 102.256 151.487 101.36C151.871 100.448 152.479 99.776 153.311 99.344C154.143 98.896 155.215 98.672 156.527 98.672C157.855 98.672 158.927 98.896 159.743 99.344C160.575 99.776 161.183 100.448 161.567 101.36C161.967 102.256 162.167 103.424 162.167 104.864C162.167 106.352 161.983 107.568 161.615 108.512C161.247 109.44 160.647 110.128 159.815 110.576C158.999 111.024 157.903 111.248 156.527 111.248ZM156.527 108.608C157.199 108.608 157.703 108.488 158.039 108.248C158.375 107.992 158.599 107.592 158.711 107.048C158.839 106.488 158.903 105.76 158.903 104.864C158.903 103.984 158.831 103.288 158.687 102.776C158.543 102.248 158.303 101.872 157.967 101.648C157.631 101.424 157.151 101.312 156.527 101.312C155.919 101.312 155.439 101.424 155.087 101.648C154.751 101.872 154.511 102.248 154.367 102.776C154.223 103.288 154.151 103.984 154.151 104.864C154.151 105.76 154.207 106.488 154.319 107.048C154.447 107.592 154.679 107.992 155.015 108.248C155.351 108.488 155.855 108.608 156.527 108.608ZM168.191 111.248C167.151 111.248 166.343 111.032 165.767 110.6C165.207 110.152 164.807 109.48 164.567 108.584C164.343 107.688 164.231 106.56 164.231 105.2V98.936H167.423V105.056C167.423 105.904 167.463 106.576 167.543 107.072C167.639 107.568 167.823 107.92 168.095 108.128C168.367 108.336 168.759 108.44 169.271 108.44C169.767 108.44 170.231 108.376 170.663 108.248C171.095 108.12 171.439 107.992 171.695 107.864V98.936H174.887V110.984H171.719V110.24C171.175 110.544 170.631 110.792 170.087 110.984C169.559 111.16 168.927 111.248 168.191 111.248ZM177.523 110.984V98.936H180.715V99.704C180.971 99.544 181.283 99.392 181.651 99.248C182.019 99.088 182.403 98.952 182.803 98.84C183.219 98.728 183.619 98.672 184.003 98.672C184.835 98.672 185.523 98.784 186.067 99.008C186.627 99.216 187.067 99.56 187.387 100.04C187.707 100.52 187.939 101.152 188.083 101.936C188.227 102.704 188.299 103.64 188.299 104.744V110.984H185.083V104.912C185.083 104.08 185.035 103.416 184.939 102.92C184.843 102.408 184.659 102.04 184.387 101.816C184.115 101.592 183.715 101.48 183.187 101.48C182.899 101.48 182.595 101.512 182.275 101.576C181.971 101.624 181.675 101.696 181.387 101.792C181.115 101.888 180.891 101.984 180.715 102.08V110.984H177.523ZM194.966 111.272C194.086 111.272 193.374 111.144 192.83 110.888C192.286 110.632 191.894 110.192 191.654 109.568C191.43 108.928 191.318 108.04 191.318 106.904V101.6H189.902V98.936H191.318V95.744H194.51V98.936H197.582V101.6H194.51V106.064C194.51 106.688 194.534 107.176 194.582 107.528C194.646 107.88 194.774 108.128 194.966 108.272C195.158 108.416 195.454 108.488 195.854 108.488C195.966 108.488 196.134 108.48 196.358 108.464C196.582 108.448 196.806 108.432 197.03 108.416C197.254 108.4 197.438 108.384 197.582 108.368L197.678 110.936C197.438 110.984 197.142 111.032 196.79 111.08C196.454 111.128 196.118 111.168 195.782 111.2C195.462 111.248 195.19 111.272 194.966 111.272ZM25.025 144.984L21.276 129.275H24.611L27.302 141.925H28.245L30.89 129.275H34.225L30.545 144.984H25.025ZM35.8089 144.984V133.438H38.8679V144.984H35.8089ZM35.8089 131.598V128.976H38.8909V131.598H35.8089ZM46.0932 145.237C44.8205 145.237 43.8085 145.022 43.0572 144.593C42.3212 144.164 41.7922 143.512 41.4702 142.638C41.1482 141.764 40.9872 140.668 40.9872 139.349C40.9872 137.923 41.1865 136.758 41.5852 135.853C41.9992 134.948 42.5972 134.281 43.3792 133.852C44.1612 133.407 45.1272 133.185 46.2772 133.185C47.9792 133.185 49.2595 133.614 50.1182 134.473C50.9922 135.332 51.4292 136.689 51.4292 138.544L51.2912 140.246H44.0692C44.0845 141.105 44.2608 141.749 44.5982 142.178C44.9355 142.607 45.5182 142.822 46.3462 142.822C46.8215 142.822 47.3428 142.814 47.9102 142.799C48.4775 142.768 49.0372 142.738 49.5892 142.707C50.1565 142.676 50.6395 142.646 51.0382 142.615L51.1072 144.754C50.7238 144.815 50.2408 144.884 49.6582 144.961C49.0755 145.038 48.4698 145.099 47.8412 145.145C47.2278 145.206 46.6452 145.237 46.0932 145.237ZM44.0692 138.291H48.3702C48.3702 137.248 48.2015 136.52 47.8642 136.106C47.5422 135.692 47.0132 135.485 46.2772 135.485C45.7865 135.485 45.3802 135.577 45.0582 135.761C44.7362 135.945 44.4908 136.244 44.3222 136.658C44.1535 137.072 44.0692 137.616 44.0692 138.291ZM54.8454 144.984L52.6374 133.438H55.9034L57.3984 142.385H57.7434L59.6064 133.691H62.5504L64.4824 142.385H64.8274L66.3224 133.438H69.3814L67.2424 144.984H62.6194L60.9864 137.555L59.3534 144.984H54.8454ZM76.3777 144.984V129.275H82.2887C83.592 129.275 84.673 129.459 85.5317 129.827C86.3904 130.18 87.0344 130.755 87.4637 131.552C87.9084 132.349 88.1307 133.415 88.1307 134.749C88.1307 136.083 87.9084 137.172 87.4637 138.015C87.0344 138.843 86.3904 139.456 85.5317 139.855C84.673 140.238 83.592 140.43 82.2887 140.43H79.5517V144.984H76.3777ZM79.5517 137.831H82.1967C83.1627 137.831 83.8527 137.578 84.2667 137.072C84.6807 136.551 84.8877 135.784 84.8877 134.772C84.8877 133.729 84.6807 132.986 84.2667 132.541C83.8527 132.096 83.1627 131.874 82.1967 131.874H79.5517V137.831ZM90.0767 144.984V128.723H93.1357V144.984H90.0767ZM98.7702 145.237C97.5742 145.237 96.6695 144.938 96.0562 144.34C95.4582 143.727 95.1592 142.807 95.1592 141.58C95.1592 140.721 95.3125 140.054 95.6192 139.579C95.9259 139.088 96.3782 138.736 96.9762 138.521C97.5895 138.291 98.3332 138.153 99.2072 138.107L102.013 137.854V137.164C102.013 136.612 101.875 136.229 101.599 136.014C101.323 135.784 100.917 135.669 100.38 135.669C99.9509 135.669 99.4525 135.684 98.8852 135.715C98.3332 135.746 97.7812 135.784 97.2292 135.83C96.6925 135.876 96.2249 135.922 95.8262 135.968L95.7342 133.806C96.1329 133.714 96.6082 133.622 97.1602 133.53C97.7275 133.423 98.3179 133.338 98.9312 133.277C99.5445 133.216 100.112 133.185 100.633 133.185C101.615 133.185 102.435 133.308 103.094 133.553C103.754 133.798 104.252 134.205 104.589 134.772C104.927 135.324 105.095 136.075 105.095 137.026V142.293C105.126 142.508 105.241 142.676 105.44 142.799C105.64 142.906 105.87 142.983 106.13 143.029L106.061 145.145C105.816 145.145 105.571 145.145 105.325 145.145C105.095 145.16 104.873 145.16 104.658 145.145C104.444 145.145 104.252 145.13 104.083 145.099C103.731 145.053 103.424 144.961 103.163 144.823C102.918 144.685 102.719 144.539 102.565 144.386C102.32 144.493 101.99 144.616 101.576 144.754C101.162 144.892 100.71 145.007 100.219 145.099C99.7439 145.191 99.2609 145.237 98.7702 145.237ZM99.5062 142.96C99.7975 142.96 100.104 142.929 100.426 142.868C100.748 142.807 101.047 142.738 101.323 142.661C101.615 142.569 101.845 142.485 102.013 142.408V139.763L99.6672 139.97C99.1612 140.016 98.7932 140.169 98.5632 140.43C98.3485 140.675 98.2412 141.028 98.2412 141.488C98.2412 141.948 98.3409 142.308 98.5402 142.569C98.7549 142.83 99.0769 142.96 99.5062 142.96ZM107.796 144.984V133.438H110.855V134.174C111.101 134.021 111.4 133.875 111.752 133.737C112.105 133.584 112.473 133.453 112.856 133.346C113.255 133.239 113.638 133.185 114.006 133.185C114.804 133.185 115.463 133.292 115.984 133.507C116.521 133.706 116.943 134.036 117.249 134.496C117.556 134.956 117.778 135.562 117.916 136.313C118.054 137.049 118.123 137.946 118.123 139.004V144.984H115.041V139.165C115.041 138.368 114.995 137.731 114.903 137.256C114.811 136.765 114.635 136.413 114.374 136.198C114.114 135.983 113.73 135.876 113.224 135.876C112.948 135.876 112.657 135.907 112.35 135.968C112.059 136.014 111.775 136.083 111.499 136.175C111.239 136.267 111.024 136.359 110.855 136.451V144.984H107.796Z" fill="black"/>
<defs>
<filter id="filter0_d_1_7030" x="18" y="0.360413" width="209" height="269.977" filterUnits="userSpaceOnUse" color-interpolation-filters="sRGB">
<feFlood flood-opacity="0" result="BackgroundImageFix"/>
<feColorMatrix in="SourceAlpha" type="matrix" values="0 0 0 0 0 0 0 0 0 0 0 0 0 0 0 0 0 0 127 0" result="hardAlpha"/>
<feOffset dy="14"/>
<feGaussianBlur stdDeviation="14"/>
<feColorMatrix type="matrix" values="0 0 0 0 0.366667 0 0 0 0 0.810339 0 0 0 0 1 0 0 0 0.31 0"/>
<feBlend mode="normal" in2="BackgroundImageFix" result="effect1_dropShadow_1_7030"/>
<feBlend mode="normal" in="SourceGraphic" in2="effect1_dropShadow_1_7030" result="shape"/>
</filter>
<linearGradient id="paint0_linear_1_7030" x1="122.5" y1="14.3604" x2="281.558" y2="145.835" gradientUnits="userSpaceOnUse">
<stop stop-color="#3AFF33"/>
<stop offset="1" stop-color="#4FF3FE"/>
</linearGradient>
<linearGradient id="paint1_linear_1_7030" x1="122.5" y1="14.3604" x2="278.288" y2="220.564" gradientUnits="userSpaceOnUse">
<stop stop-color="#3AFF33"/>
<stop offset="1" stop-color="#4FF3FE"/>
</linearGradient>
<linearGradient id="paint2_linear_1_7030" x1="122.5" y1="14.36" x2="278.288" y2="220.564" gradientUnits="userSpaceOnUse">
<stop stop-color="#5ECFFF"/>
<stop offset="1" stop-color="#64F6FF"/>
</linearGradient>
<linearGradient id="paint3_linear_1_7030" x1="192" y1="96.5781" x2="192" y2="275.77" gradientUnits="userSpaceOnUse">
<stop stop-color="#A0F9FF"/>
<stop offset="1" stop-color="#A0F9FF" stop-opacity="0"/>
</linearGradient>
</defs>
</svg>
