<svg width="25" height="30" viewBox="0 0 25 30" fill="none" xmlns="http://www.w3.org/2000/svg">
<path d="M20.4823 10.4392V17.7574C20.4805 19.6976 19.8361 21.5578 18.6904 22.9297C17.5447 24.3017 15.9913 25.0734 14.371 25.0755H8.25975C7.98962 25.0755 7.73055 25.204 7.53954 25.4328C7.34852 25.6615 7.24121 25.9718 7.24121 26.2952C7.24121 26.6187 7.34852 26.929 7.53954 27.1577C7.73055 27.3864 7.98962 27.5149 8.25975 27.5149H14.371C16.5313 27.512 18.6024 26.483 20.13 24.6537C21.6576 22.8245 22.5169 20.3443 22.5194 17.7574V10.4392C22.5194 10.1157 22.412 9.80545 22.221 9.57672C22.03 9.34798 21.7709 9.21947 21.5008 9.21947C21.2307 9.21947 20.9716 9.34798 20.7806 9.57672C20.5896 9.80545 20.4823 10.1157 20.4823 10.4392Z" fill="#A5A5A5"/>
<path d="M14.371 23.8559C15.7211 23.854 17.0156 23.2109 17.9703 22.0676C18.925 20.9243 19.4621 19.3743 19.4637 17.7574V9.21956C19.4621 7.60272 18.925 6.05265 17.9703 4.90938C17.0156 3.7661 15.7211 3.12298 14.371 3.12107H7.24115C5.89097 3.12298 4.59654 3.7661 3.64182 4.90938C2.68709 6.05265 2.15003 7.60272 2.14844 9.21956V17.7574C2.15003 19.3743 2.68709 20.9243 3.64182 22.0676C4.59654 23.2109 5.89097 23.854 7.24115 23.8559H14.371ZM8.06617 12.164L9.36817 14.32L13.6791 9.54363C13.8774 9.32392 14.1406 9.20758 14.4106 9.22021C14.6806 9.23283 14.9354 9.37339 15.1189 9.61096C15.3023 9.84852 15.3995 10.1636 15.389 10.487C15.3784 10.8103 15.261 11.1154 15.0626 11.3351L9.90841 17.0451C9.80262 17.1623 9.67729 17.2512 9.54069 17.306C9.40408 17.3609 9.25932 17.3804 9.11595 17.3633C8.97258 17.3462 8.83388 17.2928 8.709 17.2068C8.58412 17.1207 8.4759 17.004 8.39149 16.8641L6.41613 13.5933C6.2658 13.3309 6.20707 13.0085 6.25245 12.6949C6.29784 12.3814 6.44377 12.1015 6.65908 11.915C6.8744 11.7285 7.14205 11.6502 7.40493 11.6967C7.66782 11.7432 7.90511 11.9109 8.06617 12.164Z" fill="#A5A5A5"/>
</svg>
