<svg width="28" height="31" viewBox="0 0 28 31" fill="none" xmlns="http://www.w3.org/2000/svg">
<path d="M9.33301 3.11765H5.83301C3.90001 3.11765 2.33301 4.76938 2.33301 6.8069V10.4961C2.33301 12.5337 3.90001 14.1854 5.83301 14.1854H9.33301C11.266 14.1854 12.833 12.5337 12.833 10.4961V6.8069C12.833 4.76938 11.266 3.11765 9.33301 3.11765Z" fill="#A5A5A5"/>
<path d="M22.166 3.11765H18.666C16.733 3.11765 15.166 4.76938 15.166 6.8069V10.4961C15.166 12.5337 16.733 14.1854 18.666 14.1854H22.166C24.099 14.1854 25.666 12.5337 25.666 10.4961V6.8069C25.666 4.76938 24.099 3.11765 22.166 3.11765Z" fill="#A5A5A5"/>
<path d="M9.33301 16.6449H5.83301C3.90001 16.6449 2.33301 18.2966 2.33301 20.3341V24.0234C2.33301 26.0609 3.90001 27.7127 5.83301 27.7127H9.33301C11.266 27.7127 12.833 26.0609 12.833 24.0234V20.3341C12.833 18.2966 11.266 16.6449 9.33301 16.6449Z" fill="#A5A5A5"/>
<path d="M22.166 16.6449H18.666C16.733 16.6449 15.166 18.2966 15.166 20.3341V24.0234C15.166 26.0609 16.733 27.7127 18.666 27.7127H22.166C24.099 27.7127 25.666 26.0609 25.666 24.0234V20.3341C25.666 18.2966 24.099 16.6449 22.166 16.6449Z" fill="#A5A5A5"/>
</svg>
