<svg width="28" height="31" viewBox="0 0 28 31" fill="none" xmlns="http://www.w3.org/2000/svg">
<path d="M14.0001 15.3221L25.3831 8.7775C25.021 7.52197 24.2867 6.42184 23.2879 5.63857C22.2891 4.8553 21.0784 4.43015 19.8335 4.42554H8.16679C6.92188 4.43015 5.71115 4.8553 4.71233 5.63857C3.71351 6.42184 2.9792 7.52197 2.61719 8.7775L14.0001 15.3221Z" fill="#A5A5A5"/>
<path d="M14.5585 17.8026C14.3871 17.9011 14.1949 17.9528 13.9997 17.9528C13.8044 17.9528 13.6123 17.9011 13.4408 17.8026L2.33301 11.4162V20.4123C2.33483 22.0424 2.95 23.6053 4.04356 24.758C5.13713 25.9107 6.6198 26.5591 8.16634 26.561H19.833C21.3795 26.5591 22.8622 25.9107 23.9558 24.758C25.0494 23.6053 25.6645 22.0424 25.6663 20.4123V11.4162L14.5585 17.8026Z" fill="#A5A5A5"/>
</svg>
