<svg width="28" height="30" viewBox="0 0 28 30" fill="none" xmlns="http://www.w3.org/2000/svg">
<path d="M20.9998 11.7271C20.9999 10.6833 20.8546 9.64505 20.5685 8.6457C20.1622 7.22416 19.4774 5.90835 18.5582 4.7834C17.6391 3.65845 16.5062 2.74942 15.2327 2.11512C13.9592 1.48083 12.5736 1.13539 11.1655 1.10118C9.75742 1.06696 8.35818 1.34471 7.05834 1.91647C5.75851 2.48823 4.58702 3.34126 3.61968 4.42037C2.65234 5.49948 1.9107 6.78062 1.44273 8.18092C0.974764 9.58121 0.7909 11.0695 0.903036 12.5494C1.01517 14.0293 1.42081 15.4679 2.0937 16.7722L0.908075 21.1587C0.870976 21.296 0.864602 21.4404 0.889456 21.5807C0.914309 21.721 0.969711 21.8533 1.0513 21.9672C1.13289 22.0811 1.23845 22.1735 1.35966 22.2371C1.48087 22.3007 1.61443 22.3338 1.74983 22.3337C1.83088 22.3336 1.91153 22.3218 1.98958 22.2987L6.15195 21.048C6.74252 21.3892 7.36543 21.664 8.01045 21.868C8.95838 22.1772 9.94506 22.3342 10.9373 22.3337C13.6051 22.3306 16.1628 21.2121 18.0493 19.2236C19.9357 17.2352 20.9968 14.5392 20.9998 11.7271Z" fill="#A5A5A5"/>
<path d="M27.0918 27.6149L25.9062 23.2283C27.1172 20.8791 27.4402 18.1339 26.8105 15.544C26.1808 12.9541 24.6449 10.7111 22.5112 9.26544C22.8618 11.073 22.826 12.9402 22.4066 14.7313C21.9871 16.5225 21.1945 18.1927 20.0863 19.6207C18.978 21.0487 17.582 22.1987 15.9995 22.987C14.417 23.7753 12.6879 24.1823 10.9376 24.1783C10.1577 24.1758 9.38001 24.0908 8.61621 23.9247C9.53107 25.4102 10.782 26.6325 12.2564 27.4818C13.7308 28.3311 15.3824 28.7806 17.0626 28.7899C18.7348 28.7901 20.3804 28.3484 21.8488 27.5051L26.0103 28.7548C26.0884 28.7779 26.169 28.7897 26.2501 28.7899C26.3855 28.7899 26.519 28.7568 26.6403 28.6932C26.7615 28.6296 26.867 28.5373 26.9486 28.4234C27.0302 28.3095 27.0856 28.1772 27.1105 28.0369C27.1353 27.8966 27.1289 27.7521 27.0918 27.6149Z" fill="#A5A5A5"/>
</svg>
