<svg width="25" height="30" viewBox="0 0 25 30" fill="none" xmlns="http://www.w3.org/2000/svg">
<path d="M11.6522 7.00799L11.1531 5.21504C11.083 4.97412 10.9523 4.76508 10.7791 4.61658C10.6059 4.46809 10.3985 4.38742 10.1855 4.38564H5.09274C4.28306 4.38847 3.50722 4.77489 2.93469 5.46049C2.36216 6.14609 2.03947 7.07515 2.03711 8.04473V10.4841H8.74931L11.6522 7.00799Z" fill="#A5A5A5"/>
<path d="M19.3523 8.04475H13.6689L9.89007 12.5698C9.69588 12.7945 9.43695 12.9212 9.16691 12.9235H2.03711V22.6811C2.03947 23.6507 2.36216 24.5798 2.93469 25.2654C3.50722 25.951 4.28306 26.3374 5.09274 26.3402H19.3523C20.162 26.3374 20.9378 25.951 21.5104 25.2654C22.0829 24.5798 22.4056 23.6507 22.408 22.6811V11.7038C22.4056 10.7343 22.0829 9.8052 21.5104 9.1196C20.9378 8.434 20.162 8.04758 19.3523 8.04475Z" fill="#A5A5A5"/>
</svg>
