<svg width="25" height="30" viewBox="0 0 25 30" fill="none" xmlns="http://www.w3.org/2000/svg">
<path d="M2.03711 25.0756C2.03953 26.0451 2.36224 26.9741 2.93475 27.6597C3.50727 28.3453 4.28308 28.7317 5.09274 28.7346H11.204V16.5377H2.03711V25.0756Z" fill="#A5A5A5"/>
<path d="M13.2412 28.7346H19.3525C20.1621 28.7317 20.9379 28.3453 21.5105 27.6597C22.083 26.9741 22.4057 26.0451 22.4081 25.0756V16.5377H13.2412V28.7346Z" fill="#A5A5A5"/>
<path d="M20.3709 6.78008H17.1319C17.2552 6.39051 17.3174 5.977 17.3152 5.56038C17.3128 4.59082 16.9901 3.6618 16.4176 2.97621C15.8451 2.29063 15.0693 1.90419 14.2596 1.90129C13.5053 1.90365 12.779 2.24289 12.2225 2.85265C11.6661 2.24289 10.9397 1.90365 10.1854 1.90129C9.37578 1.90419 8.59997 2.29063 8.02745 2.97621C7.45493 3.6618 7.13223 4.59082 7.12981 5.56038C7.12764 5.977 7.1898 6.39051 7.31315 6.78008H4.07418C3.26452 6.78297 2.48872 7.16941 1.9162 7.855C1.34368 8.54059 1.02097 9.46961 1.01855 10.4392V12.8786C1.01855 13.202 1.12587 13.5123 1.31688 13.741C1.50789 13.9698 1.76696 14.0983 2.0371 14.0983H11.204V6.78008H10.1854C9.98399 6.78008 9.78706 6.70854 9.61956 6.57452C9.45206 6.4405 9.32152 6.25001 9.24442 6.02714C9.16733 5.80427 9.14716 5.55903 9.18646 5.32243C9.22576 5.08583 9.32277 4.8685 9.46522 4.69793C9.60766 4.52735 9.78915 4.41118 9.98673 4.36412C10.1843 4.31706 10.3891 4.34121 10.5752 4.43353C10.7613 4.52584 10.9204 4.68218 11.0323 4.88275C11.1442 5.08333 11.204 5.31915 11.204 5.56038V6.78008H13.2411V5.56038C13.2411 5.31915 13.3008 5.08333 13.4127 4.88275C13.5246 4.68218 13.6837 4.52584 13.8698 4.43353C14.0559 4.34121 14.2607 4.31706 14.4583 4.36412C14.6559 4.41118 14.8374 4.52735 14.9798 4.69793C15.1223 4.8685 15.2193 5.08583 15.2586 5.32243C15.2979 5.55903 15.2777 5.80427 15.2006 6.02714C15.1235 6.25001 14.993 6.4405 14.8255 6.57452C14.658 6.70854 14.4611 6.78008 14.2596 6.78008H13.2411V14.0983H22.4079C22.6781 14.0983 22.9371 13.9698 23.1282 13.741C23.3192 13.5123 23.4265 13.202 23.4265 12.8786V10.4392C23.4241 9.46961 23.1014 8.54059 22.5288 7.855C21.9563 7.16941 21.1805 6.78297 20.3709 6.78008Z" fill="#A5A5A5"/>
</svg>
