<svg width="28" height="30" viewBox="0 0 28 30" fill="none" xmlns="http://www.w3.org/2000/svg">
<path d="M14.0004 2.73187C11.7522 2.73193 9.55195 3.41667 7.66427 4.7037C5.7766 5.99074 4.28191 7.82526 3.36001 9.98657C2.43812 12.1479 2.12829 14.5439 2.46779 16.8865C2.80729 19.229 3.78166 21.4183 5.27369 23.1909C5.38273 23.3202 5.51639 23.4238 5.66598 23.4949C5.81556 23.5661 5.97769 23.6033 6.14181 23.6039C16.1006 23.6462 11.6304 23.6371 21.8303 23.6339C21.9944 23.6341 22.1567 23.5976 22.3065 23.5271C22.4563 23.4565 22.5902 23.3534 22.6996 23.2244C24.2002 21.4547 25.1829 19.265 25.529 16.9195C25.8752 14.5741 25.5699 12.1732 24.6502 10.0066C23.7304 7.84001 22.2355 6.00026 20.3457 4.7094C18.456 3.41855 16.2522 2.73174 14.0004 2.73187ZM19.3563 12.332L17.317 13.9061C17.4337 14.2681 17.4956 14.6471 17.5004 15.0294C17.5036 15.8544 17.2455 16.6569 16.767 17.3098C16.2884 17.9626 15.6168 18.4284 14.8587 18.6333C14.1005 18.8382 13.2992 18.7705 12.5816 18.4408C11.8641 18.1112 11.2715 17.5386 10.8978 16.8137C10.5241 16.0889 10.3906 15.2532 10.5185 14.4393C10.6464 13.6254 11.0284 12.8798 11.6039 12.3206C12.1794 11.7615 12.9156 11.4209 13.6956 11.3528C14.4756 11.2846 15.2549 11.4929 15.9098 11.9445L17.9778 10.3481C18.2276 10.1618 18.537 10.0864 18.8391 10.1383C19.1412 10.1902 19.4119 10.3651 19.5927 10.6254C19.7736 10.8857 19.8502 11.2105 19.8059 11.5297C19.7617 11.849 19.6002 12.1371 19.3563 12.332Z" fill="#A5A5A5"/>
<path d="M13.9997 16.2592C14.644 16.2592 15.1664 15.7086 15.1664 15.0294C15.1664 14.3502 14.644 13.7996 13.9997 13.7996C13.3553 13.7996 12.833 14.3502 12.833 15.0294C12.833 15.7086 13.3553 16.2592 13.9997 16.2592Z" fill="#A5A5A5"/>
</svg>
