<svg width="36" height="36" viewBox="0 0 36 36" fill="none" xmlns="http://www.w3.org/2000/svg">
<rect width="36" height="36" rx="12" fill="#3AFF33"/>
<rect width="20" height="20" transform="translate(8 8)" fill="#3AFF33"/>
<path d="M24.2967 21.3368L22.2722 19.9223C22.0074 19.7377 21.698 19.6403 21.3771 19.6403C20.8668 19.6403 20.3879 19.8906 20.0961 20.3093L19.6261 20.9828C18.8385 20.4545 17.9596 19.7169 17.1217 18.8792C16.284 18.0415 15.5466 17.1626 15.0184 16.3749L15.6917 15.905C16.0348 15.666 16.264 15.308 16.3368 14.8973C16.4094 14.4868 16.3179 14.0721 16.0786 13.7288L14.6644 11.7042C14.3687 11.2813 13.8916 11.0286 13.3879 11.0286C13.2133 11.0286 13.0421 11.0594 12.8792 11.1195C12.6941 11.1879 12.5216 11.2718 12.3526 11.378L12.073 11.5748C12.0032 11.6292 11.9382 11.6887 11.8759 11.7509C11.5349 12.0918 11.2929 12.5233 11.1563 13.0336C10.5736 15.218 12.0172 18.5212 14.7485 21.2526C17.0422 23.5463 19.7978 24.9711 21.9397 24.9714H21.9398C22.3067 24.9714 22.6524 24.9287 22.9677 24.8445C23.4779 24.7081 23.9094 24.4661 24.2506 24.1249C24.3126 24.0629 24.3718 23.9979 24.4353 23.9158L24.6322 23.6348C24.7285 23.481 24.8123 23.3085 24.8816 23.1221C25.1198 22.4781 24.8793 21.7439 24.2967 21.3368Z" fill="black"/>
</svg>
