<svg width="40" height="37" viewBox="0 0 40 37" fill="none" xmlns="http://www.w3.org/2000/svg">
<path d="M21.9282 20.5473H13.0282C10.4521 20.5501 7.98244 21.498 6.16088 23.1829C4.33932 24.8679 3.31461 27.1523 3.31152 29.5352V32.2794C3.31152 32.4838 3.39932 32.6799 3.5556 32.8244C3.71188 32.969 3.92384 33.0502 4.14486 33.0502H30.8115C31.0325 33.0502 31.2445 32.969 31.4008 32.8244C31.5571 32.6799 31.6449 32.4838 31.6449 32.2794V29.5352C31.6422 27.1522 30.6176 24.8675 28.796 23.1825C26.9743 21.4975 24.5044 20.5497 21.9282 20.5473Z" fill="#1B1F26" fill-opacity="0.72"/>
<path d="M17.4785 17.6336C21.6207 17.6336 24.9785 14.5276 24.9785 10.6961C24.9785 6.86466 21.6207 3.75864 17.4785 3.75864C13.3364 3.75864 9.97852 6.86466 9.97852 10.6961C9.97852 14.5276 13.3364 17.6336 17.4785 17.6336Z" fill="#1B1F26" fill-opacity="0.72"/>
<path d="M35 15.4167H32.5V13.1042C32.5 12.6953 32.3244 12.3032 32.0118 12.014C31.6993 11.7249 31.2754 11.5625 30.8333 11.5625C30.3913 11.5625 29.9674 11.7249 29.6548 12.014C29.3423 12.3032 29.1667 12.6953 29.1667 13.1042V15.4167H26.6667C26.2246 15.4167 25.8007 15.5791 25.4882 15.8682C25.1756 16.1573 25 16.5495 25 16.9583C25 17.3672 25.1756 17.7593 25.4882 18.0485C25.8007 18.3376 26.2246 18.5 26.6667 18.5H29.1667V20.8125C29.1667 21.2214 29.3423 21.6135 29.6548 21.9026C29.9674 22.1917 30.3913 22.3542 30.8333 22.3542C31.2754 22.3542 31.6993 22.1917 32.0118 21.9026C32.3244 21.6135 32.5 21.2214 32.5 20.8125V18.5H35C35.442 18.5 35.866 18.3376 36.1785 18.0485C36.4911 17.7593 36.6667 17.3672 36.6667 16.9583C36.6667 16.5495 36.4911 16.1573 36.1785 15.8682C35.866 15.5791 35.442 15.4167 35 15.4167Z" fill="#1B1F26" fill-opacity="0.72"/>
</svg>
