<svg width="25" height="30" viewBox="0 0 25 30" fill="none" xmlns="http://www.w3.org/2000/svg">
<path d="M22.237 20.7401L20.371 17.3884V12.8788C20.371 10.291 19.5125 7.80908 17.9844 5.97917C16.4563 4.14927 14.3837 3.12125 12.2227 3.12125C10.0616 3.12125 7.98903 4.14927 6.46092 5.97917C4.93281 7.80908 4.07433 10.291 4.07433 12.8788V17.3884L2.20836 20.7401C2.10642 20.9239 2.04798 21.1373 2.03923 21.3577C2.03049 21.578 2.07178 21.7971 2.1587 21.9916C2.24563 22.1861 2.37494 22.3488 2.5329 22.4623C2.69086 22.5759 2.87156 22.636 3.05578 22.6364H21.3896C21.5738 22.636 21.7545 22.5759 21.9124 22.4623C22.0704 22.3488 22.1997 22.1861 22.2866 21.9916C22.3736 21.7971 22.4148 21.578 22.4061 21.3577C22.3974 21.1373 22.3389 20.9239 22.237 20.7401Z" fill="#A5A5A5"/>
<path d="M12.222 27.5151C13.1251 27.5161 14.0028 27.1569 14.7165 26.4944C15.4302 25.8318 15.9394 24.9036 16.1638 23.856H8.28027C8.50462 24.9036 9.01383 25.8318 9.72757 26.4944C10.4413 27.1569 11.319 27.5161 12.222 27.5151Z" fill="#A5A5A5"/>
</svg>
