<svg width="28" height="30" viewBox="0 0 28 30" fill="none" xmlns="http://www.w3.org/2000/svg">
<path d="M22.1667 7.7243V6.2668C22.1656 5.28868 21.7966 4.35092 21.1404 3.65929C20.4843 2.96765 19.5946 2.57862 18.6667 2.57755H7C6.08275 2.57704 5.20225 2.95754 4.5493 3.63659C3.89635 4.31564 3.52354 5.23854 3.51167 6.20531C3.51085 6.22658 3.5 6.24491 3.5 6.2668V23.4833C3.50271 24.4609 3.87233 25.3976 4.52812 26.0888C5.18391 26.7801 6.07258 27.1697 7 27.1726H21C21.9274 27.1697 22.8161 26.7801 23.4719 26.0888C24.1277 25.3976 24.4973 24.4609 24.5 23.4833V11.1858C24.4965 10.4258 24.2704 9.68551 23.8528 9.06598C23.4352 8.44644 22.8464 7.97789 22.1667 7.7243ZM18.6667 22.2536C18.6657 22.5794 18.5425 22.8916 18.3239 23.122C18.1053 23.3525 17.8091 23.4823 17.5 23.4833H10.5C10.1909 23.4823 9.89465 23.3525 9.67606 23.122C9.45747 22.8916 9.33426 22.5794 9.33333 22.2536C9.18985 21.2935 9.28901 20.3105 9.62083 19.4038C9.95264 18.497 10.5054 17.6984 11.2233 17.0886C10.7582 16.4545 10.504 15.6766 10.5 14.875C10.5 13.8966 10.8687 12.9582 11.5251 12.2664C12.1815 11.5745 13.0717 11.1858 14 11.1858C14.9283 11.1858 15.8185 11.5745 16.4749 12.2664C17.1313 12.9582 17.5 13.8966 17.5 14.875C17.496 15.6766 17.2418 16.4545 16.7767 17.0886C17.4942 17.6988 18.0466 18.4974 18.3784 19.4041C18.7102 20.3107 18.8096 21.2935 18.6667 22.2536ZM19.8333 7.49655H7.14187C6.985 7.51347 6.82651 7.49679 6.67591 7.44751C6.52532 7.39822 6.38573 7.31736 6.26554 7.20977C6.14535 7.10218 6.04703 6.97009 5.9765 6.82143C5.90597 6.67277 5.86468 6.51062 5.85511 6.34472C5.84554 6.17881 5.86789 6.01258 5.92081 5.85601C5.97374 5.69944 6.05615 5.55577 6.16309 5.43362C6.27003 5.31148 6.3993 5.21338 6.54312 5.14523C6.68694 5.07708 6.84234 5.04028 7 5.03705H18.6667C18.976 5.03737 19.2726 5.16704 19.4913 5.39759C19.71 5.62814 19.833 5.94075 19.8333 6.2668V7.49655Z" fill="#3AFF33"/>
</svg>
