<svg width="28" height="31" viewBox="0 0 28 31" fill="none" xmlns="http://www.w3.org/2000/svg">
<path d="M25.5588 11.5155C25.0482 11.4374 24.5609 11.2388 24.1333 10.9346C23.7056 10.6304 23.3485 10.2284 23.0887 9.75861C22.8288 9.2888 22.6728 8.76324 22.6324 8.22109C22.5919 7.67893 22.668 7.13414 22.855 6.62728C22.9739 6.29592 22.9914 5.93365 22.9051 5.59127C22.8188 5.24889 22.633 4.94356 22.3738 4.71809C21.2293 3.70508 19.9266 2.90929 18.5238 2.36619C18.2043 2.24111 17.8556 2.22548 17.5272 2.32154C17.1989 2.41759 16.9076 2.62042 16.695 2.90113C16.375 3.33246 15.966 3.68131 15.4991 3.92122C15.0321 4.16114 14.5195 4.28583 14 4.28583C13.4806 4.28583 12.9679 4.16114 12.501 3.92122C12.034 3.68131 11.625 3.33246 11.305 2.90113C11.0924 2.62042 10.8012 2.41759 10.4728 2.32154C10.1445 2.22548 9.79571 2.24111 9.47627 2.36619C8.18098 2.8676 6.96991 3.58371 5.88877 4.48751C5.61625 4.71492 5.41995 5.02833 5.32863 5.38183C5.23731 5.73534 5.25575 6.11038 5.38127 6.45204C5.58318 6.9723 5.6666 7.53521 5.62485 8.0956C5.58309 8.65599 5.41731 9.19826 5.14082 9.67892C4.86433 10.1596 4.48481 10.5652 4.03271 10.8634C3.58062 11.1615 3.06853 11.3438 2.53752 11.3956C2.19278 11.4345 1.86898 11.589 1.61379 11.8364C1.35861 12.0838 1.18552 12.411 1.12002 12.7699C0.957092 13.62 0.875019 14.4851 0.875019 15.3524C0.873821 16.0784 0.929427 16.8034 1.04127 17.5198C1.09693 17.8902 1.2668 18.2309 1.5246 18.4893C1.78241 18.7477 2.11379 18.9094 2.46752 18.9494C3.01019 19.0031 3.53277 19.193 3.99151 19.5032C4.45026 19.8135 4.83182 20.2351 5.10427 20.7327C5.37672 21.2303 5.53213 21.7894 5.55749 22.3633C5.58284 22.9372 5.47741 23.5092 5.25002 24.0313C5.10121 24.371 5.06429 24.7533 5.14514 25.1175C5.22599 25.4818 5.41996 25.8072 5.69627 26.042C6.83387 27.0366 8.12402 27.8195 9.51127 28.357C9.68867 28.4217 9.8748 28.456 10.0625 28.4584C10.3199 28.4578 10.5734 28.3922 10.8018 28.267C11.0302 28.1419 11.2267 27.9608 11.375 27.739C11.6869 27.2601 12.1049 26.8686 12.5929 26.5986C13.0808 26.3286 13.6239 26.1881 14.175 26.1895C14.709 26.1902 15.2354 26.3224 15.7124 26.5753C16.1894 26.8283 16.6038 27.1952 16.9225 27.6468C17.1345 27.9472 17.4349 28.1653 17.7767 28.267C18.1186 28.3688 18.4827 28.3485 18.8125 28.2094C20.081 27.6713 21.2619 26.9275 22.3125 26.0051C22.5764 25.7751 22.7644 25.4628 22.8493 25.1131C22.9342 24.7634 22.9117 24.3943 22.785 24.059C22.5792 23.5454 22.4895 22.9885 22.5229 22.4321C22.5563 21.8757 22.712 21.3351 22.9776 20.853C23.2432 20.3709 23.6114 19.9605 24.0533 19.6541C24.4952 19.3478 24.9986 19.1539 25.5238 19.0877C25.8643 19.0381 26.181 18.8755 26.428 18.6234C26.675 18.3714 26.8394 18.043 26.8975 17.6858C27.038 16.9165 27.1142 16.1357 27.125 15.3524C27.1252 14.5261 27.052 13.7016 26.9063 12.8898C26.8472 12.5405 26.6852 12.2197 26.4433 11.973C26.2014 11.7263 25.8919 11.5663 25.5588 11.5155ZM18.375 15.3524C18.375 16.2644 18.1184 17.156 17.6377 17.9144C17.157 18.6728 16.4737 19.2638 15.6743 19.6129C14.8748 19.9619 13.9952 20.0532 13.1465 19.8753C12.2978 19.6974 11.5183 19.2582 10.9064 18.6132C10.2946 17.9683 9.87789 17.1466 9.70908 16.252C9.54027 15.3575 9.62691 14.4302 9.95805 13.5876C10.2892 12.7449 10.8499 12.0247 11.5694 11.518C12.2889 11.0113 13.1347 10.7408 14 10.7408C15.1603 10.7408 16.2731 11.2267 17.0936 12.0915C17.9141 12.9563 18.375 14.1293 18.375 15.3524Z" fill="#A5A5A5"/>
</svg>
